- 
http://www.Speed.Cd
 
http://www.Speed.Cd       the fast  and The Hottest Private Tracker on the net

Please Seed back to make the speed Faster!!
 ............ NFO .............
-General
Unique ID                                : 199802226749494458215650702308162819874 (0x965082575729C1ED8A6A9F7F11CE5722)
Complete name                            : 666.Park.Avenue.S01E04.Hero.Complex.1080p.WEB-DL.DD5.1.H.264-ECI.mkv
Format                                   : Matroska
Format version                           : Version 2
File size                                : 1.64 GiB
Duration                                 : 42mn 51s
Overall bit rate                         : 5 483 Kbps
Encoded date                             : UTC 2012-10-22 16:46:57
Writing application                      : mkvmerge v5.8.0 ('No Sleep / Pillow') built on Sep  2 2012 15:37:04
Writing library                          : libebml v1.2.3 + libmatroska v1.3.0

Video
ID                                       : 1
Format                                   : AVC
Format/Info                              : Advanced Video Codec
Format profile                           : High@L4.0
Format settings, CABAC                   : Yes
Format settings, ReFrames                : 4 frames
Codec ID                                 : V_MPEG4/ISO/AVC
Duration                                 : 42mn 51s
Bit rate                                 : 4 990 Kbps
Width                                    : 1 920 pixels
Height                                   : 1 080 pixels
Display aspect ratio                     : 16:9
Frame rate mode                          : Constant
Frame rate                               : 23.976 fps
Color space                              : YUV
Chroma subsampling                       : 4:2:0
Bit depth                                : 8 bits
Scan type                                : Progressive
Bits/(Pixel*Frame)                       : 0.100
Stream size                              : 1.49 GiB (91%)
Language                                 : English
Default                                  : Yes
Forced                                   : No
Color primaries                          : BT.709
Transfer characteristics                 : BT.709
Matrix coefficients                      : BT.709

Audio
ID                                       : 2
Format                                   : AC-3
Format/Info                              : Audio Coding 3
Mode extension                           : CM (complete main)
Format settings, Endianness              : Big
Codec ID                                 : A_AC3
Duration                                 : 42mn 51s
Bit rate mode                            : Constant
Bit rate                                 : 384 Kbps
Channel(s)                               : 6 channels
Channel positions                        : Front: L C R, Side: L R, LFE
Sampling rate                            : 48.0 KHz
Bit depth                                : 16 bits
Compression mode                         : Lossy
Stream size                              : 118 MiB (7%)
Language                                 : English
Default                                  : Yes
Forced                                   : No